<svg id="global-search" xmlns="http://www.w3.org/2000/svg" width="28.568" height="28.568" viewBox="0 0 28.568 28.568">
  <g id="Group" transform="translate(2.381 2.381)">
    <path id="Vector" d="M23.807,11.9a11.9,11.9,0,1,0-11.9,11.9" fill="none" stroke="#3f4653" stroke-linecap="round" stroke-linejoin="round" stroke-width="1.5"/>
    <path id="Vector-2" data-name="Vector" d="M.551,0h1.19a33.833,33.833,0,0,0,0,21.426H.551" transform="translate(6.591 1.19)" fill="none" stroke="#3f4653" stroke-linecap="round" stroke-linejoin="round" stroke-width="1.5"/>
    <path id="Vector-3" data-name="Vector" d="M0,0A33.989,33.989,0,0,1,1.738,10.713" transform="translate(15.474 1.19)" fill="none" stroke="#3f4653" stroke-linecap="round" stroke-linejoin="round" stroke-width="1.5"/>
    <path id="Vector-4" data-name="Vector" d="M0,1.19V0A33.989,33.989,0,0,0,10.713,1.738" transform="translate(1.19 15.474)" fill="none" stroke="#3f4653" stroke-linecap="round" stroke-linejoin="round" stroke-width="1.5"/>
    <path id="Vector-5" data-name="Vector" d="M0,1.741a33.833,33.833,0,0,1,21.426,0" transform="translate(1.19 6.591)" fill="none" stroke="#3f4653" stroke-linecap="round" stroke-linejoin="round" stroke-width="1.5"/>
  </g>
  <g id="Group-2" data-name="Group" transform="translate(17.855 17.855)">
    <path id="Vector-6" data-name="Vector" d="M7.618,3.809A3.809,3.809,0,1,1,3.809,0,3.809,3.809,0,0,1,7.618,3.809Z" fill="none" stroke="#3f4653" stroke-linecap="round" stroke-linejoin="round" stroke-width="1.5"/>
    <path id="Vector-7" data-name="Vector" d="M1.19,1.19,0,0" transform="translate(7.142 7.142)" fill="none" stroke="#3f4653" stroke-linecap="round" stroke-linejoin="round" stroke-width="1.5"/>
  </g>
  <path id="Vector-8" data-name="Vector" d="M0,0H28.568V28.568H0Z" transform="translate(28.568 28.568) rotate(180)" fill="none" opacity="0"/>
</svg>
